Coordinates
version=1
nRows=45
nColumns=24
inDegrees=yes

Units are S.I. units (second, meters, Newtons, ...)
If the header above contains a line with 'inDegrees', this indicates whether rotational values are in degrees (yes) or radians (no).

endheader
time	pelvis_tilt	pelvis_list	pelvis_rotation	pelvis_tx	pelvis_ty	pelvis_tz	hip_flexion_r	hip_adduction_r	hip_rotation_r	knee_angle_r	ankle_angle_r	subtalar_angle_r	mtp_angle_r	hip_flexion_l	hip_adduction_l	hip_rotation_l	knee_angle_l	ankle_angle_l	subtalar_angle_l	mtp_angle_l	lumbar_extension	lumbar_bending	lumbar_rotation
1.375000	12.022726	1.749195	-177.817830	0.282172	0.710688	-1.214512	51.366975	-23.554343	-19.970728	-71.501303	26.086745	8.109546	0.000000	54.285096	-24.793831	-13.212544	-70.201299	24.630147	13.689729	0.000000	-6.227885	0.484818	1.344107
1.380000	11.946138	1.661141	-177.834080	0.282145	0.708041	-1.214286	51.674155	-23.842171	-19.834205	-72.194747	26.436873	8.348328	0.000000	54.555520	-24.850287	-13.152565	-70.905360	25.068124	13.938054	0.000000	-6.341171	0.444117	1.342384
1.385000	11.985443	1.754038	-177.952577	0.282481	0.705176	-1.214964	52.130321	-23.788575	-19.709052	-72.888196	26.760817	8.371120	0.000000	55.038024	-25.172932	-12.951137	-71.578080	25.404374	14.070886	0.000000	-6.362558	0.469740	1.471818
1.390000	11.963126	1.771471	-178.039229	0.282577	0.702385	-1.215176	52.509505	-23.895263	-19.615410	-73.590424	27.128864	8.400364	0.000000	55.438609	-25.391373	-12.790104	-72.400162	25.559030	13.918057	0.000000	-6.422459	0.476415	1.565968
1.395000	11.989872	1.789697	-178.141531	0.282712	0.699576	-1.215342	52.949939	-23.984807	-19.488208	-74.281482	27.458061	8.477109	0.000000	55.834868	-25.588375	-12.620110	-72.996064	26.013578	14.032130	0.000000	-6.429163	0.499997	1.672489
1.400000	11.948764	1.756713	-178.231616	0.282805	0.696826	-1.215598	53.319854	-24.117821	-19.342040	-74.977322	27.793080	8.562591	0.000000	56.226879	-25.781252	-12.523567	-73.866263	26.277176	14.039195	0.000000	-6.516281	0.457812	1.727941
1.405000	11.923891	1.758480	-178.324063	0.282913	0.694046	-1.215846	53.665613	-24.199464	-19.191354	-75.604606	28.204040	8.748477	0.000000	56.575846	-25.980979	-12.375628	-74.574252	26.668821	14.178559	0.000000	-6.578746	0.458196	1.813419
1.410000	11.854568	1.656861	-178.315964	0.282847	0.691360	-1.215661	53.988522	-24.495841	-19.064925	-76.323671	28.433373	8.831906	0.000000	56.804702	-25.971961	-12.256584	-75.187750	27.020655	14.357811	0.000000	-6.681435	0.393110	1.751768
1.415000	11.854351	1.768152	-178.486683	0.283124	0.688453	-1.216230	54.403094	-24.397924	-18.936378	-77.006983	28.765110	8.859285	0.000000	57.266904	-26.310733	-12.006619	-75.868158	27.339897	14.340862	0.000000	-6.642567	0.249336	2.510541
1.420000	11.868946	1.766877	-178.560170	0.283250	0.685656	-1.216450	54.822057	-24.502136	-18.800735	-77.685375	29.066943	8.905015	0.000000	57.676448	-26.466283	-11.818315	-76.536381	27.639118	14.394901	0.000000	-6.662712	0.236227	2.576726
1.425000	11.831780	1.773786	-178.659333	0.283273	0.682848	-1.216661	55.181120	-24.577911	-18.648278	-78.360020	29.396027	8.988174	0.000000	58.016264	-26.647501	-11.639562	-77.213434	27.967929	14.431403	0.000000	-6.731198	0.234641	2.691511
1.430000	11.831728	1.756275	-178.715632	0.283358	0.680059	-1.216913	55.562800	-24.698144	-18.509555	-79.011438	29.705002	9.087975	0.000000	58.390369	-26.769308	-11.456834	-77.858966	28.291839	14.501799	0.000000	-6.762232	0.213074	2.705598
1.435000	11.778660	1.752522	-178.797405	0.283378	0.677297	-1.217144	55.891070	-24.778718	-18.352543	-79.662498	30.023918	9.130026	0.000000	58.706797	-26.926178	-11.281866	-78.525004	28.649610	14.528957	0.000000	-6.843573	0.190105	2.817127
1.440000	11.737552	1.756281	-178.864279	0.283398	0.674590	-1.217385	56.227361	-24.865066	-18.218922	-80.313433	30.329173	9.186677	0.000000	59.037957	-27.072298	-11.085361	-79.159423	28.959596	14.566952	0.000000	-6.897231	0.200911	2.796093
1.445000	11.762829	1.788248	-178.963371	0.283458	0.671777	-1.217578	56.643775	-24.907651	-18.069597	-80.963029	30.608109	9.338284	0.000000	59.467159	-27.256812	-10.842385	-79.834716	29.234276	14.654419	0.000000	-6.902958	0.214930	2.961015
1.450000	11.696269	1.802878	-179.032910	0.283430	0.669100	-1.217755	56.948019	-24.987651	-17.943576	-81.617257	30.927264	9.342464	0.000000	59.771142	-27.398024	-10.623741	-80.470832	29.569841	14.634000	0.000000	-6.994299	0.225682	3.034899
1.455000	11.708263	1.856428	-179.107509	0.283472	0.666343	-1.218020	57.309554	-25.021609	-17.837319	-82.233697	31.224805	9.454576	0.000000	60.182238	-27.567351	-10.365556	-81.094900	29.860337	14.680547	0.000000	-7.001736	0.265035	3.125776
1.460000	11.659655	1.866134	-179.143167	0.283485	0.663672	-1.218251	57.603449	-25.104336	-17.708671	-82.842760	31.528269	9.487056	0.000000	60.495008	-27.670174	-10.153581	-81.680177	30.166750	14.638509	0.000000	-7.076628	0.260281	3.154420
1.465000	11.622542	1.885496	-179.180555	0.283449	0.661049	-1.218513	57.897999	-25.168031	-17.579485	-83.441432	31.827801	9.545066	0.000000	60.853765	-27.813822	-9.982166	-82.286676	30.357819	14.528412	0.000000	-7.129195	0.254084	3.200960
1.470000	11.637588	1.919448	-179.225362	0.283492	0.658349	-1.218674	58.262845	-25.252291	-17.483102	-84.054933	32.093674	9.648764	0.000000	61.259307	-27.919082	-9.718252	-82.887830	30.617362	14.485654	0.000000	-7.131090	0.287627	3.251975
1.475000	11.535579	1.886163	-179.216851	0.283230	0.655923	-1.218342	58.475093	-25.460354	-17.356829	-84.640146	32.365886	9.671745	0.000000	61.468546	-27.912094	-9.535682	-83.476237	30.944897	14.411420	0.000000	-7.234927	0.308516	3.244024
1.480000	11.598689	1.971272	-179.310108	0.283411	0.653165	-1.218918	58.894761	-25.396940	-17.249291	-85.242071	32.630803	9.745676	0.000000	61.950511	-28.129045	-9.239367	-84.041838	31.155101	14.436323	0.000000	-7.192214	0.336079	3.352294
1.485000	11.531960	1.990111	-179.323790	0.283318	0.650653	-1.219059	59.132486	-25.479708	-17.142862	-85.810988	32.913371	9.729822	0.000000	62.239396	-28.210997	-9.000131	-84.617403	31.430625	14.407917	0.000000	-7.276757	0.354307	3.351498
1.490000	11.494955	2.012032	-179.323008	0.283293	0.648216	-1.219245	59.385590	-25.564745	-17.052726	-86.352275	33.172688	9.779736	0.000000	62.565023	-28.277743	-8.725628	-85.198499	31.718301	14.475173	0.000000	-7.335006	0.359129	3.365480
1.495000	11.490168	2.037347	-179.294942	0.283283	0.645735	-1.219423	59.645284	-25.640248	-16.833228	-86.851166	33.605000	10.382836	0.000000	62.929055	-28.302736	-8.460707	-85.698380	31.914479	14.457529	0.000000	-7.353955	0.370620	3.348952
1.500000	11.441005	2.061455	-179.290196	0.283199	0.643432	-1.219561	59.896164	-25.751876	-16.886517	-87.421134	33.710525	9.950887	0.000000	63.216796	-28.357309	-8.213467	-86.210427	32.161111	14.439611	0.000000	-7.429968	0.383902	3.337539
1.505000	11.317125	2.028409	-179.237413	0.282897	0.641274	-1.219260	60.033506	-25.966408	-16.788637	-87.943747	33.966912	9.942786	0.000000	63.372485	-28.304484	-8.034875	-86.734016	32.454726	14.381507	0.000000	-7.555951	0.393213	3.312082
1.510000	11.328541	2.096982	-179.272469	0.283001	0.638886	-1.219799	60.336215	-25.929844	-16.706872	-88.467833	34.234805	9.931383	0.000000	63.763388	-28.438622	-7.736821	-87.234738	32.635042	14.382371	0.000000	-7.574956	0.403877	3.351850
1.515000	11.257728	2.103116	-179.249409	0.282910	0.636708	-1.219945	60.522980	-26.009248	-16.591499	-88.954702	34.476811	9.916000	0.000000	64.001307	-28.471629	-7.520501	-87.712188	32.857670	14.369604	0.000000	-7.666918	0.398379	3.335390
1.520000	11.225603	2.131111	-179.227386	0.282838	0.634497	-1.220098	60.716792	-26.062591	-16.400187	-89.391453	34.869019	10.388798	0.000000	64.290889	-28.510292	-7.269220	-88.176340	33.085630	14.421069	0.000000	-7.711643	0.416487	3.333162
1.525000	11.154438	2.148844	-179.219592	0.282696	0.632400	-1.220187	60.920475	-26.157046	-16.420046	-89.914634	34.940223	9.971032	0.000000	64.514522	-28.556781	-7.058692	-88.645576	33.335970	14.459971	0.000000	-7.803832	0.426975	3.309318
1.530000	11.078517	2.160049	-179.212084	0.282573	0.630381	-1.220305	61.100722	-26.219974	-16.311572	-90.390733	35.166792	9.920997	0.000000	64.725210	-28.600855	-6.852272	-89.094014	33.525336	14.409126	0.000000	-7.894950	0.433700	3.307460
1.535000	11.024772	2.182901	-179.208143	0.282458	0.628403	-1.220447	61.280679	-26.264871	-16.218621	-90.837373	35.381019	9.910618	0.000000	64.952051	-28.645278	-6.637985	-89.517323	33.754587	14.375742	0.000000	-7.964798	0.440550	3.303567
1.540000	10.931014	2.142982	-179.109789	0.282224	0.626613	-1.220187	61.387868	-26.480823	-16.120000	-91.252181	35.576620	10.052655	0.000000	65.091768	-28.541817	-6.478856	-89.938788	33.957722	14.389536	0.000000	-8.069095	0.430744	3.210351
1.545000	10.954939	2.253851	-179.141636	0.282326	0.624577	-1.220788	61.618571	-26.366003	-16.076242	-91.658455	35.781946	10.014206	0.000000	65.471605	-28.706473	-6.177041	-90.340101	34.099629	14.407172	0.000000	-8.072323	0.478733	3.244922
1.550000	10.826209	2.205818	-179.060711	0.282039	0.622888	-1.220543	61.688928	-26.556030	-15.961828	-92.062756	35.979612	10.004778	0.000000	65.550412	-28.622467	-6.024972	-90.758838	34.336220	14.418527	0.000000	-8.205511	0.460302	3.161970
1.555000	10.854300	2.297284	-179.116528	0.282139	0.620983	-1.221044	61.940140	-26.446905	-15.898848	-92.458286	36.152700	9.996605	0.000000	65.970108	-28.782839	-5.538968	-91.151616	34.328132	14.804156	0.000000	-8.210231	0.499200	3.225885
1.560000	10.797618	2.333299	-179.129913	0.282026	0.619280	-1.221161	62.088620	-26.460336	-15.823277	-92.847132	36.349460	9.925935	0.000000	66.135107	-28.849677	-5.367983	-91.435318	34.662284	14.795643	0.000000	-8.291843	0.522749	3.235686
1.565000	10.737544	2.347716	-179.137424	0.281928	0.617597	-1.221299	62.236817	-26.475207	-15.715204	-93.224358	36.535434	9.864666	0.000000	66.323597	-28.907955	-5.192484	-91.855924	34.754311	14.821559	0.000000	-8.375904	0.528066	3.218888
1.570000	10.722858	2.358054	-179.120103	0.281886	0.615936	-1.221422	62.414722	-26.525346	-15.633965	-93.577106	36.683320	9.850961	0.000000	66.543204	-28.930613	-5.024768	-92.196975	34.901072	14.878117	0.000000	-8.413890	0.526505	3.203021
1.575000	10.596675	2.276732	-179.018096	0.281635	0.614520	-1.221105	62.461911	-26.733103	-15.491501	-93.910842	36.847132	9.877120	0.000000	66.563118	-28.800871	-4.956356	-92.519545	35.105351	14.880332	0.000000	-8.566572	0.476348	3.071281
1.580000	10.557694	2.281577	-179.021026	0.281539	0.613005	-1.221216	62.606695	-26.762135	-15.395561	-94.240972	37.022509	9.876113	0.000000	66.730023	-28.853027	-4.831536	-92.839871	35.270318	14.870517	0.000000	-8.630873	0.458692	3.114529
1.585000	10.611379	2.373099	-179.103715	0.281660	0.611359	-1.221761	62.844341	-26.586746	-15.231372	-94.538073	37.317704	10.129452	0.000000	67.058877	-29.037255	-4.608337	-93.154035	35.377774	14.910115	0.000000	-8.606774	0.486466	3.227421
1.590000	10.585716	2.405265	-179.075746	0.281577	0.609910	-1.221850	62.992872	-26.656028	-15.304739	-94.893829	37.303773	9.755898	0.000000	67.242595	-29.078043	-4.453330	-93.393398	35.595095	14.994257	0.000000	-8.656857	0.522703	3.163027
1.595000	10.543803	2.384564	-179.083361	0.281520	0.608512	-1.221980	63.110302	-26.654969	-15.043409	-95.153014	37.598487	10.246462	0.000000	67.402039	-29.116259	-4.367601	-93.727614	35.581304	14.933895	0.000000	-8.725549	0.479273	3.169172
